<svg id="Layer_1" data-name="Layer 1" xmlns="http://www.w3.org/2000/svg" viewBox="0 0 564.37 78.58"><defs><style>.cls-1{fill:#231f20;}</style></defs><title>ue_logo</title><path class="cls-1" d="M51.67,1.26V55.2c0,11.38-6.42,23.38-25.78,23.38C8.42,78.58,0,69.52,0,55.2V1.26H15.89V54.15c0,9.37,4,13.06,9.79,13.06,6.94,0,10.1-4.64,10.1-13.06V1.26Z"/><path class="cls-1" d="M82.93,77.32H67V1.26H96.4c10.85,0,17.79,7,17.79,19.91,0,9.69-3.79,17-14.1,18.65V40c3.47.42,13.79,1.26,13.79,15,0,4.84.31,19.17,1.78,22.33H100.09C98,72.68,98.4,67.52,98.4,62.57c0-9.06.85-16.75-11.36-16.75H82.93Zm0-43.19H90c6.31,0,8.1-6.32,8.1-11.17,0-7.26-3-10-8.1-10H82.93Z"/><path class="cls-1" d="M129.73,77.32V1.26h28.21C170,1.26,180,4.74,180,21c0,8.75-4.32,15.07-12.95,16.75v.21c11.26,1.58,14.21,8.85,14.21,19.28,0,19.28-16.73,20.12-23.47,20.12Zm15.89-45h10.63c3.47,0,8.32-2.32,8.32-9.69,0-5.58-3.79-9.69-9.16-9.69h-9.79Zm0,33.29h8.84c3.37,0,10.95-.11,10.95-10.75,0-6.74-2.53-10.85-10.53-10.85h-9.26Z"/><path class="cls-1" d="M188,77.32,209.08,1.26H230l20.63,76.06H233.91L229.7,60.47H208l-4.31,16.85Zm30.62-61.41h-.21l-7.26,32.86h15.16Z"/><polygon class="cls-1" points="260.65 77.32 260.65 1.26 282.12 1.26 302.32 53.93 302.53 53.93 302.53 1.26 317.37 1.26 317.37 77.32 296.43 77.32 275.7 21.7 275.49 21.7 275.49 77.32 260.65 77.32"/><polygon class="cls-1" points="332.82 77.32 332.82 1.26 374.29 1.26 374.29 12.96 348.72 12.96 348.72 31.71 372.29 31.71 372.29 43.4 348.72 43.4 348.72 65.63 375.13 65.63 375.13 77.32 332.82 77.32"/><path class="cls-1" d="M383.49,77.32,404.54,1.26h20.94l20.63,76.06H429.37l-4.2-16.85H403.49l-4.32,16.85Zm30.63-61.41h-.22l-7.26,32.86H421.8Z"/><path class="cls-1" d="M471.62,77.32H455.73V1.26h29.36c10.84,0,17.79,7,17.79,19.91,0,9.69-3.79,17-14.1,18.65V40c3.47.42,13.78,1.26,13.78,15,0,4.84.32,19.17,1.79,22.33H488.78c-2.11-4.64-1.69-9.8-1.69-14.75,0-9.06.84-16.75-11.36-16.75h-4.11Zm0-43.19h7.05c6.32,0,8.11-6.32,8.11-11.17,0-7.26-3.06-10-8.11-10h-7.05Z"/><path class="cls-1" d="M537.85,78.58c-19.68,0-23.37-11.58-22.52-24.75h15.89c0,7.27.31,13.38,9,13.38,5.37,0,8-3.48,8-8.64,0-13.7-32-14.54-32-37.19C516.27,9.48,522,0,541.32,0c15.47,0,23.15,7,22.1,22.86H548c0-5.69-1-11.48-7.37-11.48-5.15,0-8.2,2.84-8.2,8.11,0,14.43,32,13.17,32,37.08,0,19.7-14.42,22-26.52,22"/></svg>